<svg xmlns="http://www.w3.org/2000/svg" viewBox="0 0 150.16 58"><defs><style>.cls-1{fill:#0971f5;}</style></defs><title>Hydro-Blu-58</title><g id="Layer_2" data-name="Layer 2"><g id="Layer_1-2" data-name="Layer 1"><path class="cls-1" d="M45.36,36.4h-.11L37.44,16.07H29.7l12,28L40.3,47.58c-.31.73-.6,1.37-.88,1.92a5.67,5.67,0,0,1-.93,1.37,3.05,3.05,0,0,1-1.28.81,5.56,5.56,0,0,1-1.86.26,9.23,9.23,0,0,1-1.25-.08,7.74,7.74,0,0,1-1.37-.32l-.59,6.05a12.46,12.46,0,0,0,1.84.32c.6.06,1.19.09,1.78.09a13.25,13.25,0,0,0,4-.52,8.45,8.45,0,0,0,2.89-1.55,9.5,9.5,0,0,0,2.09-2.5A23.08,23.08,0,0,0,46.35,50L59.57,16.07H52.29Z"/><path class="cls-1" d="M115.65,15.26a8.13,8.13,0,0,0-4.89,1.51,10.12,10.12,0,0,0-3.26,4h-.12V16.07h-6.7V44h7v-15a9.94,9.94,0,0,1,.29-2,7.68,7.68,0,0,1,1.11-2.5,6.89,6.89,0,0,1,2.27-2.1,7.43,7.43,0,0,1,3.84-.87c.32,0,.64,0,1,.05a9.6,9.6,0,0,1,1.19.24V15.43a3.18,3.18,0,0,0-.82-.14Z"/><path class="cls-1" d="M23.32,18.75a9.16,9.16,0,0,0-3.2-2.53,10.52,10.52,0,0,0-4.69-1,9.66,9.66,0,0,0-2.91.41,9.85,9.85,0,0,0-2.39,1.07A9.13,9.13,0,0,0,8.3,18.26,6.76,6.76,0,0,0,7.1,20H7V0H0V44H7V28.77A9.1,9.1,0,0,1,7.4,26a7.56,7.56,0,0,1,1.22-2.42,6,6,0,0,1,2-1.71,6.13,6.13,0,0,1,2.91-.64,4.77,4.77,0,0,1,2.71.69,4.79,4.79,0,0,1,1.57,1.78,7.33,7.33,0,0,1,.73,2.39,20.28,20.28,0,0,1,.17,2.53V44h7V26.55a15.52,15.52,0,0,0-.58-4.19A10.2,10.2,0,0,0,23.32,18.75Z"/><path class="cls-1" d="M85.19,19.62H85a11.54,11.54,0,0,0-1.34-1.45,10,10,0,0,0-2-1.4,12.2,12.2,0,0,0-2.65-1.08,12.45,12.45,0,0,0-3.44-.43,13,13,0,0,0-9.78,4.25,14.08,14.08,0,0,0-2.79,4.66,16.44,16.44,0,0,0-1,5.76,17.26,17.26,0,0,0,1,5.8,14.28,14.28,0,0,0,2.73,4.71,13,13,0,0,0,10,4.4,12.43,12.43,0,0,0,5.56-1.28,9.55,9.55,0,0,0,4.05-3.73h.11V44h6.64V0h-7Zm-.32,13.66a8.74,8.74,0,0,1-1.63,2.88,8.18,8.18,0,0,1-2.59,2.07,7.38,7.38,0,0,1-3.43.79,7.45,7.45,0,0,1-3.56-.82,7.75,7.75,0,0,1-2.5-2.1,8.89,8.89,0,0,1-1.48-2.91,11.13,11.13,0,0,1-.5-3.26,10.88,10.88,0,0,1,.5-3.23,8.94,8.94,0,0,1,1.48-2.88,7.42,7.42,0,0,1,2.5-2.07A7.69,7.69,0,0,1,77.22,21a7.16,7.16,0,0,1,3.43.82,8.55,8.55,0,0,1,2.59,2.1,8.68,8.68,0,0,1,1.63,2.91,10,10,0,0,1,.56,3.26A9.8,9.8,0,0,1,84.87,33.28Z"/><path class="cls-1" d="M135.74,15.54A14.88,14.88,0,1,0,150.15,30,14.92,14.92,0,0,0,135.74,15.54Zm-.47,24.58a7.63,7.63,0,0,1-7.44-7.8q0-3.59,5.13-9.66c.4-.48,1-1.2,1.9-2.14a.55.55,0,0,1,.83,0c.81.88,1.4,1.55,1.79,2q5.24,6.18,5.23,9.8A7.63,7.63,0,0,1,135.27,40.12Z"/></g></g></svg>