<?xml version="1.0" encoding="utf-8"?>
<svg width="20px" height="20px" viewBox="0 0 null 72" xmlns="http://www.w3.org/2000/svg">
  <defs>
    <style>.cls-1{fill:#0971f5;}</style>
  </defs>
  <circle cx="10.056" cy="10.055" r="7.307" style="fill: rgb(255, 255, 255);"/>
  <path id="Combined-Shape" class="cls-1" d="M 10 20 C 2.302 20 -2.509 11.667 1.34 5 C 5.189 -1.667 14.811 -1.667 18.66 5 C 19.538 6.52 20 8.245 20 10 C 20 15.523 15.523 20 10 20 Z M 10 16.522 C 12.761 16.522 15 14.175 15 11.281 C 15 9.662 13.827 7.469 11.481 4.7 C 11.181 4.344 10.687 3.796 10 3.056 C 9.275 3.847 8.758 4.428 8.444 4.8 C 6.148 7.526 5 9.686 5 11.281 C 5 14.167 7.239 16.522 10 16.522 Z"/>
</svg>